# xmcd
#
# Track frame offsets: 
#        150
#        71950
#        139225
#        193075
#        242800
#        266575
#        279402
#        297700
#        309775
#
# Disc length: 4389 seconds
#
# Revision: 0
# Processed by: cddbd v1.5.2PL0 Copyright (c) Steve Scherf et al.
# Submitted via: ExactAudioCopyFreeDBPlugin 1.0
#
DISCID=93112309
DTITLE=Antonín Dvořák - The Complete Dvořák Published Orchestral Works
DTITLE=Various Artist - CD 2
DYEAR=1991
DGENRE=Classical
TTITLE0=Symphony Number 2 in B flat major, Op.4 B. 12 - 1 - Allegro co
TTITLE0=n moto
TTITLE1=Symphony Number 2 in B flat major, Op.4 B. 12 - 2 - Poco adagi
TTITLE1=o
TTITLE2=Symphony Number 2 in B flat major, Op.4 B. 12 - 3 -Scherzo All
TTITLE2=egro con brio
TTITLE3=Symphony Number 2 in B flat major, Op.4 B. 12 - 4 - Finale All
TTITLE3=egro con fuoco
TTITLE4=Legends, Op. 59 B.122 - 06 - Allegro con moto, C sharp minor
TTITLE5=Legends, Op. 59 B.122 - 07 - Allegretto grazioso, A major
TTITLE6=Legends, Op. 59 B.122 - 08 - Un poco allegretto, F major
TTITLE7=Legends, Op. 59 B.122 - 09 - Andante con moto, D major
TTITLE8=Legends, Op. 59 B.122 - 10 - Andante, B flat minor
EXTD=
EXTT0=
EXTT1=
EXTT2=
EXTT3=
EXTT4=
EXTT5=
EXTT6=
EXTT7=
EXTT8=
PLAYORDER=
